<?xml version="1.0" encoding="UTF-8"?>
<svg id="Layer_1" data-name="Layer 1" xmlns="http://www.w3.org/2000/svg" viewBox="0 0 638.57 595.19">
  <defs>
    <style>
      .cls-1 {
        stroke: #2b1f45;
        stroke-width: 30px;
      }

      .cls-1, .cls-2 {
        fill: none;
        stroke-miterlimit: 10;
      }

      .cls-3 {
        fill: #453271;
        opacity: .2;
      }

      .cls-2 {
        opacity: .5;
        stroke: #453271;
        stroke-width: 40px;
      }
    </style>
  </defs>
  <path class="cls-2" d="m122.34,244.23c-3.42-34.35-6.85-68.71-10.27-103.06-.56-5.66-1.12-11.47.22-16.95,1.19-4.85,3.77-9.12,6.38-13.27,9.97-15.89,20.72-31.22,32.18-45.9,4.28-5.49,8.71-10.93,14.05-15.21,11.64-9.32,26.51-12.33,40.82-15.07,24.89-4.78,52.45-9.06,73.99,5.44,1.44.97,2.86,2.04,3.87,3.52,2.89,4.25,1.28,10.56-2.16,14.27s-8.2,5.5-12.72,7.46c-49.44,21.39-82.42,70.88-122.59,108.51-4.19,3.92-9.98,7.94-14.89,5.08-2.65-1.54-4.12-4.71-4.92-7.84-3.68-14.38,3.59-29.08,11.12-41.51,6.42-10.61,13.23-20.94,20.4-30.97,5.27-7.36,10.76-14.6,17.26-20.71,18.93-17.81,44.74-24.61,69.82-27.29,1.4-.15,2.93-.25,4.1.6,1.13.82,1.63,2.33,1.9,3.77,2.65,13.98-9.54,25.77-21.17,32.48-13.74,7.93-28.55,13.52-42.37,21.28-13.82,7.76-26.99,18.17-34.49,32.89-4.37-5.87-.35-14.46,4.07-20.22,18.01-23.51,43.02-40.66,70.45-48.31"/>
  <path class="cls-2" d="m170.33,432.98c-31.46-14.21-62.93-28.42-94.39-42.63-5.18-2.34-10.49-4.76-14.57-8.67-3.6-3.45-6.02-7.83-8.3-12.16-8.78-16.58-16.68-33.55-23.66-50.82-2.61-6.45-5.11-13.01-6.14-19.77-2.25-14.74,2.58-29.13,7.36-42.89,8.31-23.95,18.38-49.95,41.7-61.36,1.56-.76,3.2-1.46,4.98-1.59,5.13-.38,9.79,4.17,11.28,9s.67,9.86.1,14.74c-6.2,53.51,20.17,106.82,32.67,160.42,1.3,5.59,1.89,12.61-3.05,15.43-2.66,1.52-6.14,1.21-9.25.34-14.29-4.01-23.38-17.65-30.39-30.38-5.98-10.86-11.52-21.92-16.62-33.15-3.74-8.24-7.27-16.62-9.31-25.31-5.96-25.3,1.06-51.05,11.28-74.1.57-1.29,1.24-2.66,2.57-3.25,1.28-.57,2.83-.25,4.21.24,13.43,4.7,17.55,21.15,17.54,34.57,0,15.86-2.57,31.49-2.76,47.33-.19,15.85,2.24,32.46,11.23,46.31-7.27.85-12.69-6.93-15.48-13.64-11.36-27.35-13.7-57.59-6.61-85.17"/>
  <path class="cls-2" d="m370.7,494.24c-28.04,20.14-56.08,40.28-84.12,60.43-4.62,3.32-9.37,6.7-14.79,8.28-4.79,1.4-9.79,1.29-14.68,1.11-18.75-.69-37.4-2.33-55.84-4.92-6.89-.97-13.82-2.08-20.2-4.57-13.9-5.42-23.93-16.8-33.47-27.82-16.59-19.17-34.07-40.9-32.29-66.79.12-1.73.34-3.5,1.11-5.11,2.24-4.63,8.51-6.39,13.43-5.27s8.87,4.35,12.82,7.29c43.24,32.12,102.6,35.94,155.27,51.92,5.49,1.67,11.86,4.67,11.84,10.36-.01,3.06-2.02,5.93-4.33,8.18-10.61,10.37-26.98,11.43-41.51,11.12-12.4-.26-24.75-.98-37.02-2.18-9.01-.88-18.03-2.02-26.57-4.59-24.89-7.49-43.68-26.44-58.54-46.82-.83-1.14-1.69-2.41-1.53-3.85.15-1.39,1.2-2.58,2.31-3.53,10.79-9.28,27.09-4.62,38.71,2.09,13.73,7.93,25.98,17.97,39.62,26.05s29.23,14.29,45.73,13.43c-2.9,6.72-12.35,7.53-19.55,6.59-29.36-3.84-56.73-16.93-77.06-36.86"/>
  <path class="cls-2" d="m509.17,351.27c3.42,34.35,6.85,68.71,10.27,103.06.56,5.66,1.12,11.47-.22,16.95-1.19,4.85-3.77,9.12-6.38,13.27-9.97,15.89-20.72,31.22-32.18,45.9-4.28,5.49-8.71,10.93-14.05,15.21-11.64,9.32-26.51,12.33-40.82,15.07-24.89,4.78-52.45,9.06-73.99-5.44-1.44-.97-2.86-2.04-3.87-3.52-2.89-4.25-1.28-10.56,2.16-14.27,3.44-3.7,8.2-5.5,12.72-7.46,49.44-21.39,82.42-70.88,122.59-108.51,4.19-3.92,9.98-7.94,14.89-5.08,2.65,1.54,4.12,4.71,4.92,7.84,3.68,14.38-3.59,29.08-11.12,41.51-6.42,10.61-13.23,20.94-20.4,30.97-5.27,7.36-10.76,14.6-17.26,20.71-18.93,17.81-44.74,24.61-69.82,27.29-1.4.15-2.93.25-4.1-.6-1.13-.82-1.63-2.33-1.9-3.77-2.65-13.98,9.54-25.77,21.17-32.48,13.74-7.93,28.55-13.52,42.37-21.28,13.82-7.76,26.99-18.17,34.49-32.89,4.37,5.87.35,14.46-4.07,20.22-18.01,23.51-43.02,40.66-70.45,48.31"/>
  <path class="cls-2" d="m463.86,162.4c31.46,14.21,62.93,28.42,94.39,42.63,5.18,2.34,10.49,4.76,14.57,8.67,3.6,3.45,6.02,7.83,8.3,12.16,8.78,16.58,16.68,33.55,23.66,50.82,2.61,6.45,5.11,13.01,6.14,19.77,2.25,14.74-2.58,29.13-7.36,42.89-8.31,23.95-18.38,49.95-41.7,61.36-1.56.76-3.2,1.46-4.98,1.59-5.13.38-9.79-4.17-11.28-9s-.67-9.86-.1-14.74c6.2-53.51-20.17-106.82-32.67-160.42-1.3-5.59-1.89-12.61,3.05-15.43,2.66-1.52,6.14-1.21,9.25-.34,14.29,4.01,23.38,17.65,30.39,30.38,5.98,10.86,11.52,21.92,16.62,33.15,3.74,8.24,7.27,16.62,9.31,25.31,5.96,25.3-1.06,51.05-11.28,74.1-.57,1.29-1.24,2.66-2.57,3.25-1.28.57-2.83.25-4.21-.24-13.43-4.7-17.55-21.15-17.54-34.57,0-15.86,2.57-31.49,2.76-47.33s-2.24-32.46-11.23-46.31c7.27-.85,12.69,6.93,15.48,13.64,11.36,27.35,13.7,57.59,6.61,85.17"/>
  <path class="cls-2" d="m278.67,100.49c28.04-20.14,56.08-40.28,84.12-60.43,4.62-3.32,9.37-6.7,14.79-8.28,4.79-1.4,9.79-1.29,14.68-1.11,18.75.69,37.4,2.33,55.84,4.92,6.89.97,13.82,2.08,20.2,4.57,13.9,5.42,23.93,16.8,33.47,27.82,16.59,19.17,34.07,40.9,32.29,66.79-.12,1.73-.34,3.5-1.11,5.11-2.24,4.63-8.51,6.39-13.43,5.27s-8.87-4.35-12.82-7.29c-43.24-32.12-102.6-35.94-155.27-51.92-5.49-1.67-11.86-4.67-11.84-10.36.01-3.06,2.02-5.93,4.33-8.18,10.61-10.37,26.98-11.43,41.51-11.12,12.4.26,24.75.98,37.02,2.18,9.01.88,18.03,2.02,26.57,4.59,24.89,7.49,43.68,26.44,58.54,46.82.83,1.14,1.69,2.41,1.53,3.85-.15,1.39-1.2,2.58-2.31,3.53-10.79,9.28-27.09,4.62-38.71-2.09-13.73-7.93-25.98-17.97-39.62-26.05s-29.23-14.29-45.73-13.43c2.9-6.72,12.35-7.53,19.55-6.59,29.36,3.84,56.73,16.93,77.06,36.86"/>
  <path class="cls-1" d="m217.15,135.43l105.24-100.7c18.42-17.62,47.82-19.73,75.14-19.54,82.84.59,149.52,68.22,148.94,151.06"/>
  <path class="cls-1" d="m90.95,166.33C18.91,207.24-6.32,298.8,34.59,370.84c13.49,23.76,30.02,48.17,54.49,55.31l139.83,40.79"/>
  <path class="cls-1" d="m92.12,428.94c-.59,82.84,66.09,150.47,148.94,151.06,27.32.19,56.72-1.91,75.14-19.54l105.24-100.7"/>
  <path class="cls-1" d="m547.63,428.87c72.04-40.91,97.26-132.48,56.35-204.51-13.49-23.76-30.02-48.17-54.49-55.31l-139.83-40.79"/>
  <path class="cls-1" d="m127.86,305.43l-34.59-141.49c-6.05-24.76,6.82-51.28,20.65-74.84C155.85,17.66,247.76-6.27,319.21,35.65"/>
  <path class="cls-1" d="m510.72,289.76l34.59,141.49c6.05,24.76-6.82,51.28-20.65,74.84-41.93,71.45-133.84,95.38-205.29,53.45"/>
  <circle class="cls-3" cx="319.29" cy="297.6" r="188.16"/>
  <circle class="cls-1" cx="319.29" cy="297.6" r="192.11"/>
</svg>