<?xml version="1.0" encoding="UTF-8"?>
<svg id="Layer_1" data-name="Layer 1" xmlns="http://www.w3.org/2000/svg" viewBox="0 0 286.51 168.72">
  <defs>
    <style>
      .cls-1 {
        fill: #fff;
      }

      .cls-2 {
        fill: none;
        stroke: #231f20;
        stroke-miterlimit: 10;
        stroke-width: 20px;
      }

      .cls-3 {
        fill: #231f20;
      }
    </style>
  </defs>
  <path class="cls-3" d="m.66,84.01C28.94,36.48,64.9,1.54,123.09.18c7.2-.27,14.26-.15,21.18.06l-.04,20.06c-24.98.36-50.94,4.06-71.18,19.36-12.54,9.06-22.8,21.11-31.52,33.92-5.37,7.99-10.18,16.38-14.63,24.97,0,0-26.24-14.54-26.24-14.54h0Z"/>
  <g>
    <path class="cls-1" d="m273.39,91.28C230.57,14,185.56,10.19,142.92,10.27"/>
    <path class="cls-3" d="m260.27,98.55c-11.54-22.18-25.76-44.01-46.15-58.89-20.24-15.3-46.2-19-71.18-19.36,0,0-.04-20.06-.04-20.06,21.68-.83,44.25.19,64.85,8.35,24.69,9.42,44.82,27.84,60.67,48.49,6.55,8.56,12.59,17.73,18.08,26.93,0,0-26.24,14.54-26.24,14.54h0Z"/>
  </g>
  <path class="cls-3" d="m26.24,70.17c11.54,22.18,25.76,44.01,46.15,58.89,20.24,15.3,46.2,19,71.18,19.36,0,0,.04,20.06.04,20.06-21.68.83-44.25-.19-64.85-8.35-24.69-9.42-44.82-27.84-60.67-48.49-6.55-8.56-12.59-17.73-18.08-26.93,0,0,26.24-14.54,26.24-14.54h0Z"/>
  <path class="cls-3" d="m285.85,84.71c-28.27,47.53-64.24,82.47-122.42,83.83-7.2.27-14.26.15-21.18-.06,0,0,.04-20.06.04-20.06,24.98-.36,50.94-4.06,71.18-19.36,12.54-9.06,22.8-21.11,31.52-33.92,5.37-7.99,10.18-16.38,14.63-24.97,0,0,26.24,14.54,26.24,14.54h0Z"/>
  <circle class="cls-2" cx="143.25" cy="84.36" r="39.26"/>
</svg>