<?xml version="1.0" encoding="UTF-8"?>
<svg id="Layer_1" data-name="Layer 1" xmlns="http://www.w3.org/2000/svg" viewBox="0 0 638.57 595.19">
  <defs>
    <style>
      .cls-1 {
        stroke-width: 20px;
      }

      .cls-1, .cls-2 {
        stroke: #2b1f45;
      }

      .cls-1, .cls-2, .cls-3, .cls-4 {
        fill: none;
        stroke-miterlimit: 10;
      }

      .cls-5 {
        fill: #2b1f45;
      }

      .cls-2 {
        stroke-width: 30px;
      }

      .cls-3 {
        opacity: .2;
      }

      .cls-3, .cls-4 {
        stroke: #453271;
        stroke-width: 40px;
      }

      .cls-4 {
        opacity: .5;
      }
    </style>
  </defs>
  <path class="cls-4" d="m122.34,244.23c-3.42-34.35-6.85-68.71-10.27-103.06-.56-5.66-1.12-11.47.22-16.95,1.19-4.85,3.77-9.12,6.38-13.27,9.97-15.89,20.72-31.22,32.18-45.9,4.28-5.49,8.71-10.93,14.05-15.21,11.64-9.32,26.51-12.33,40.82-15.07,24.89-4.78,52.45-9.06,73.99,5.44,1.44.97,2.86,2.04,3.87,3.52,2.89,4.25,1.28,10.56-2.16,14.27s-8.2,5.5-12.72,7.46c-49.44,21.39-82.42,70.88-122.59,108.51-4.19,3.92-9.98,7.94-14.89,5.08-2.65-1.54-4.12-4.71-4.92-7.84-3.68-14.38,3.59-29.08,11.12-41.51,6.42-10.61,13.23-20.94,20.4-30.97,5.27-7.36,10.76-14.6,17.26-20.71,18.93-17.81,44.74-24.61,69.82-27.29,1.4-.15,2.93-.25,4.1.6,1.13.82,1.63,2.33,1.9,3.77,2.65,13.98-9.54,25.77-21.17,32.48-13.74,7.93-28.55,13.52-42.37,21.28-13.82,7.76-26.99,18.17-34.49,32.89-4.37-5.87-.35-14.46,4.07-20.22,18.01-23.51,43.02-40.66,70.45-48.31"/>
  <path class="cls-4" d="m170.33,432.98c-31.46-14.21-62.93-28.42-94.39-42.63-5.18-2.34-10.49-4.76-14.57-8.67-3.6-3.45-6.02-7.83-8.3-12.16-8.78-16.58-16.68-33.55-23.66-50.82-2.61-6.45-5.11-13.01-6.14-19.77-2.25-14.74,2.58-29.13,7.36-42.89,8.31-23.95,18.38-49.95,41.7-61.36,1.56-.76,3.2-1.46,4.98-1.59,5.13-.38,9.79,4.17,11.28,9s.67,9.86.1,14.74c-6.2,53.51,20.17,106.82,32.67,160.42,1.3,5.59,1.89,12.61-3.05,15.43-2.66,1.52-6.14,1.21-9.25.34-14.29-4.01-23.38-17.65-30.39-30.38-5.98-10.86-11.52-21.92-16.62-33.15-3.74-8.24-7.27-16.62-9.31-25.31-5.96-25.3,1.06-51.05,11.28-74.1.57-1.29,1.24-2.66,2.57-3.25,1.28-.57,2.83-.25,4.21.24,13.43,4.7,17.55,21.15,17.54,34.57,0,15.86-2.57,31.49-2.76,47.33-.19,15.85,2.24,32.46,11.23,46.31-7.27.85-12.69-6.93-15.48-13.64-11.36-27.35-13.7-57.59-6.61-85.17"/>
  <path class="cls-4" d="m370.7,494.24c-28.04,20.14-56.08,40.28-84.12,60.43-4.62,3.32-9.37,6.7-14.79,8.28-4.79,1.4-9.79,1.29-14.68,1.11-18.75-.69-37.4-2.33-55.84-4.92-6.89-.97-13.82-2.08-20.2-4.57-13.9-5.42-23.93-16.8-33.47-27.82-16.59-19.17-34.07-40.9-32.29-66.79.12-1.73.34-3.5,1.11-5.11,2.24-4.63,8.51-6.39,13.43-5.27s8.87,4.35,12.82,7.29c43.24,32.12,102.6,35.94,155.27,51.92,5.49,1.67,11.86,4.67,11.84,10.36-.01,3.06-2.02,5.93-4.33,8.18-10.61,10.37-26.98,11.43-41.51,11.12-12.4-.26-24.75-.98-37.02-2.18-9.01-.88-18.03-2.02-26.57-4.59-24.89-7.49-43.68-26.44-58.54-46.82-.83-1.14-1.69-2.41-1.53-3.85.15-1.39,1.2-2.58,2.31-3.53,10.79-9.28,27.09-4.62,38.71,2.09,13.73,7.93,25.98,17.97,39.62,26.05s29.23,14.29,45.73,13.43c-2.9,6.72-12.35,7.53-19.55,6.59-29.36-3.84-56.73-16.93-77.06-36.86"/>
  <path class="cls-4" d="m509.17,351.27c3.42,34.35,6.85,68.71,10.27,103.06.56,5.66,1.12,11.47-.22,16.95-1.19,4.85-3.77,9.12-6.38,13.27-9.97,15.89-20.72,31.22-32.18,45.9-4.28,5.49-8.71,10.93-14.05,15.21-11.64,9.32-26.51,12.33-40.82,15.07-24.89,4.78-52.45,9.06-73.99-5.44-1.44-.97-2.86-2.04-3.87-3.52-2.89-4.25-1.28-10.56,2.16-14.27,3.44-3.7,8.2-5.5,12.72-7.46,49.44-21.39,82.42-70.88,122.59-108.51,4.19-3.92,9.98-7.94,14.89-5.08,2.65,1.54,4.12,4.71,4.92,7.84,3.68,14.38-3.59,29.08-11.12,41.51-6.42,10.61-13.23,20.94-20.4,30.97-5.27,7.36-10.76,14.6-17.26,20.71-18.93,17.81-44.74,24.61-69.82,27.29-1.4.15-2.93.25-4.1-.6-1.13-.82-1.63-2.33-1.9-3.77-2.65-13.98,9.54-25.77,21.17-32.48,13.74-7.93,28.55-13.52,42.37-21.28,13.82-7.76,26.99-18.17,34.49-32.89,4.37,5.87.35,14.46-4.07,20.22-18.01,23.51-43.02,40.66-70.45,48.31"/>
  <path class="cls-4" d="m463.86,162.4c31.46,14.21,62.93,28.42,94.39,42.63,5.18,2.34,10.49,4.76,14.57,8.67,3.6,3.45,6.02,7.83,8.3,12.16,8.78,16.58,16.68,33.55,23.66,50.82,2.61,6.45,5.11,13.01,6.14,19.77,2.25,14.74-2.58,29.13-7.36,42.89-8.31,23.95-18.38,49.95-41.7,61.36-1.56.76-3.2,1.46-4.98,1.59-5.13.38-9.79-4.17-11.28-9s-.67-9.86-.1-14.74c6.2-53.51-20.17-106.82-32.67-160.42-1.3-5.59-1.89-12.61,3.05-15.43,2.66-1.52,6.14-1.21,9.25-.34,14.29,4.01,23.38,17.65,30.39,30.38,5.98,10.86,11.52,21.92,16.62,33.15,3.74,8.24,7.27,16.62,9.31,25.31,5.96,25.3-1.06,51.05-11.28,74.1-.57,1.29-1.24,2.66-2.57,3.25-1.28.57-2.83.25-4.21-.24-13.43-4.7-17.55-21.15-17.54-34.57,0-15.86,2.57-31.49,2.76-47.33s-2.24-32.46-11.23-46.31c7.27-.85,12.69,6.93,15.48,13.64,11.36,27.35,13.7,57.59,6.61,85.17"/>
  <path class="cls-4" d="m278.67,100.49c28.04-20.14,56.08-40.28,84.12-60.43,4.62-3.32,9.37-6.7,14.79-8.28,4.79-1.4,9.79-1.29,14.68-1.11,18.75.69,37.4,2.33,55.84,4.92,6.89.97,13.82,2.08,20.2,4.57,13.9,5.42,23.93,16.8,33.47,27.82,16.59,19.17,34.07,40.9,32.29,66.79-.12,1.73-.34,3.5-1.11,5.11-2.24,4.63-8.51,6.39-13.43,5.27s-8.87-4.35-12.82-7.29c-43.24-32.12-102.6-35.94-155.27-51.92-5.49-1.67-11.86-4.67-11.84-10.36.01-3.06,2.02-5.93,4.33-8.18,10.61-10.37,26.98-11.43,41.51-11.12,12.4.26,24.75.98,37.02,2.18,9.01.88,18.03,2.02,26.57,4.59,24.89,7.49,43.68,26.44,58.54,46.82.83,1.14,1.69,2.41,1.53,3.85-.15,1.39-1.2,2.58-2.31,3.53-10.79,9.28-27.09,4.62-38.71-2.09-13.73-7.93-25.98-17.97-39.62-26.05s-29.23-14.29-45.73-13.43c2.9-6.72,12.35-7.53,19.55-6.59,29.36,3.84,56.73,16.93,77.06,36.86"/>
  <path class="cls-3" d="m224.63,145.15c15.89,2.08,30.37-8.32,45.54-13.5,9.87-3.37,20.32-4.55,30.68-5.71,22.02-2.47,41.09,6.33,62.38,12.43,35.4,10.15,63.83,30.55,81.93,62.62,11.61,20.56,21.62,42.32,26.12,65.49,4.51,23.17,3.21,47.97-6.98,69.27-2.79,5.82-6.21,11.35-8.58,17.35-3.55,9-4.65,18.82-8.16,27.83-7.9,20.31,12.75,24.52-21.16,52.72,3.48-17.96-16.49,3.16-23.41,5.02-44.62,11.97-91.1,17-137.26,14.85-3.66-.17-7.34-.39-10.88-1.34-3.93-1.05-7.57-2.97-11.16-4.87-10.48-5.54-21.26-11.33-28.72-20.55-7.01-8.67-10.47-19.64-16.34-29.13-10.86-17.56-29.65-29.58-38.46-48.25-3.92-8.3-5.62-17.44-7.24-26.47-2.06-11.51-4.06-23.08-4.22-34.77-.66-47.61,28.56-89.82,56.55-128.34,3.24-4.47,6.58-9.02,11.12-12.15,8.84-6.1,23.83,4.87,34.55,5.49,45.32,2.62,83.6-31.95,128.78,17.18,32.5,35.34,72.22,64.19,89.67,108.92,5.98,15.32,10.28,33.85.76,47.26-4.39,6.17-11.09,10.22-17.6,14.09-31.6,18.79-64.17,37.94-100.47,43.8-13.03,2.1-26.3,2.43-39.49,1.96-25.09-.89-50.33-4.73-73.57-14.23-23.24-9.5-44.46-24.96-58.26-45.94-5.6-8.51-9.99-18.04-11.07-28.17-1.78-16.75,5.8-33.45,17.01-46.02,11.21-12.57,24.14-27.22,38.77-35.57,17.66-10.07,37.64-13.89,57.51-18.19,46.54-10.06,93.88,9.07,137.66,27.81,5.8,2.48,11.65,4.99,16.83,8.58,6.74,4.67,12.15,11.02,16.93,17.69,9.09,12.68,16.3,27.14,17.91,42.66s-14.77,18.66-26.33,29.14c-9.7,8.8-11.36,25.99-21.72,34-16.48,12.75-23.58,34.96-40.27,47.44-11.54,8.63-26.41,11.57-40.81,12.06s-28.81-1.21-43.21-.74c-19.21.62-39.59,4.87-56.86-3.55-15.27-7.44-24.41-23.06-34.59-36.66-8.57-11.45-18.43-21.94-29.32-31.21-6.74-5.74-14.01-11.16-18.77-18.62-4.26-6.67-6.23-14.6-6.92-22.49-1.61-18.56,3.53-36.97,8.61-54.9,8.12-28.64,24.43-49.19,48.07-67.28,14.42-11.03,35.91-20.55,53.91-22.92,37.01-4.87,65.15-5.13,99.42,9.68,34.43,14.88,73.82,23.5,102.64,47.5,12.73,10.6,15.85,36.69,25.14,50.41s14.76,30.86,11.15,47.03c-2.99,13.38-11.74,24.66-20.56,35.16-11.91,14.19-24.89,28.26-41.76,35.92-3.17-16.67,5.51-34.91,20.44-42.97-5.63,18.9-20.21,34.11-36.96,44.5-16.75,10.4-35.72,16.57-54.47,22.65,4.73-4.32,10.55-7.42,16.77-8.95,1.37-.34,2.86-.59,4.16-.04,1.54.64,2.45,2.24,3.01,3.81,2.54,7.02.26,15.17-4.48,20.93-4.74,5.77-11.61,9.43-18.7,11.79-11.79,3.93-25.82,4.26-35.64-3.36-22.85,6.39-46.94,8.3-70.5,5.59-7.58-.87-15.45-2.37-21.42-7.11-7.29-5.8-10.58-17.83-1.79-24.25,2.14-1.56,4.71-2.47,7.36-2.66,8.16-.6,15.03,4.73,18.93,11.41-13.82,1.26-26.12-9.15-33.67-20.8s-12.21-25.12-20.88-35.94c-11.08-13.83-27.58-22-41.28-33.24-13.7-11.24-25.34-28.66-20.69-45.76,2.53-9.3,9.42-16.66,15.32-24.28,8.3-10.72,15.02-22.67,19.87-35.33,3.51-9.16,14.25-8.45,20.33-16.14,6.09-7.69,80.68-22.92,89.57-18.79.61,2.87-71.45,5.64-72.55,8.37,4.48-15.29,20.2-13.77,36.03-15.67,15.82-1.9,59.29-12.06,67.25,1.74,24.8-8.98,22.88-8.16,49.23-7.16,12.18.46,24.57,2.08,35.55,7.36s20.46,14.71,23.43,26.54"/>
  <path class="cls-2" d="m217.15,135.43l105.24-100.7c18.42-17.62,47.82-19.73,75.14-19.54,82.84.59,149.52,68.22,148.94,151.06"/>
  <path class="cls-2" d="m90.95,166.33C18.91,207.24-6.32,298.8,34.59,370.84c13.49,23.76,30.02,48.17,54.49,55.31l139.83,40.79"/>
  <path class="cls-2" d="m92.12,428.94c-.59,82.84,66.09,150.47,148.94,151.06,27.32.19,56.72-1.91,75.14-19.54l105.24-100.7"/>
  <path class="cls-2" d="m547.63,428.87c72.04-40.91,97.26-132.48,56.35-204.51-13.49-23.76-30.02-48.17-54.49-55.31l-139.83-40.79"/>
  <path class="cls-5" d="m176.7,297.24c28.27-47.53,64.24-82.47,122.42-83.83,7.2-.27,14.26-.15,21.18.06l-.04,20.06c-24.98.36-50.94,4.06-71.18,19.36-12.54,9.06-22.8,21.11-31.52,33.92-5.37,7.99-10.18,16.38-14.63,24.97,0,0-26.24-14.54-26.24-14.54h0Z"/>
  <path class="cls-5" d="m436.3,311.79c-11.54-22.18-25.76-44.01-46.15-58.89-20.24-15.3-46.2-19-71.18-19.36,0,0-.04-20.06-.04-20.06,21.68-.83,44.25.19,64.85,8.35,24.69,9.42,44.82,27.84,60.67,48.49,6.55,8.56,12.59,17.73,18.08,26.93,0,0-26.24,14.54-26.24,14.54h0Z"/>
  <path class="cls-5" d="m202.27,283.41c11.54,22.18,25.76,44.01,46.15,58.89,20.24,15.3,46.2,19,71.18,19.36,0,0,.04,20.06.04,20.06-21.68.83-44.25-.19-64.85-8.35-24.69-9.42-44.82-27.84-60.67-48.49-6.55-8.56-12.59-17.73-18.08-26.93,0,0,26.24-14.54,26.24-14.54h0Z"/>
  <path class="cls-5" d="m461.88,297.95c-28.27,47.53-64.24,82.47-122.42,83.83-7.2.27-14.26.15-21.18-.06,0,0,.04-20.06.04-20.06,24.98-.36,50.94-4.06,71.18-19.36,12.54-9.06,22.8-21.11,31.52-33.92,5.37-7.99,10.18-16.38,14.63-24.97,0,0,26.24,14.54,26.24,14.54h0Z"/>
  <circle class="cls-1" cx="319.29" cy="297.6" r="39.26"/>
  <path class="cls-2" d="m127.86,305.43l-34.59-141.49c-6.05-24.76,6.82-51.28,20.65-74.84C155.85,17.66,247.76-6.27,319.21,35.65"/>
  <path class="cls-2" d="m510.72,289.76l34.59,141.49c6.05,24.76-6.82,51.28-20.65,74.84-41.93,71.45-133.84,95.38-205.29,53.45"/>
  <circle class="cls-2" cx="319.29" cy="297.6" r="192.11"/>
</svg>